<mxfile host="app.diagrams.net" modified="2022-03-29T16:30:52.172Z" agent="5.0 (Macintosh; Intel Mac OS X 10_15_7) AppleWebKit/537.36 (KHTML, like Gecko) Chrome/99.0.4844.83 Safari/537.36" etag="vNefAsvLLnzx6iJwgUDz" version="17.2.4" type="github">
  <diagram id="oRSFCTxGa8Yn6FLIQau2" name="Page-1">
    <mxGraphModel dx="1261" dy="819" grid="1" gridSize="10" guides="1" tooltips="1" connect="1" arrows="1" fold="1" page="1" pageScale="1" pageWidth="827" pageHeight="1169" math="0" shadow="0">
      <root>
        <mxCell id="0" />
        <mxCell id="1" parent="0" />
        <mxCell id="0coyzVnQNSBkB0Iz7uPK-1" value="" style="swimlane;" vertex="1" parent="1">
          <mxGeometry x="120" y="210" width="140" height="150" as="geometry" />
        </mxCell>
        <mxCell id="0coyzVnQNSBkB0Iz7uPK-2" value="" style="swimlane;" vertex="1" parent="1">
          <mxGeometry x="330" y="210" width="140" height="150" as="geometry" />
        </mxCell>
      </root>
    </mxGraphModel>
  </diagram>
</mxfile>
